#!OML:ASF H:\BabyWalks\Project 1\Capture day 1\Session 1\baby.ASF
:FULLY-SPECIFIED
:DEGREES
531
root 22.2711 17.3882 1.17598 -185.179 68.9343 -191.363
lowerback 22.5574 -1.07633 1.58022
upperback 6.13486 -0.361893 1.37869
thorax -5.87169 0.0565537 0.659669
lowerneck -1.03518 -6.01807 3.80736
upperneck -0.83835 -8.07959 -2.93848
head -0.371747 -4.04834 -1.52066
rclavicle 5.00937e-014 -7.95139e-015
rhumerus -46.6766 1.50777 -77.1025
rradius 47.8971
rwrist -7.31936
rhand -26.1702 -15.0208
rfingers 7.12502
rthumb 0.381387 -45.0002
lclavicle 5.00937e-014 -7.95139e-015
lhumerus -47.8791 -0.44333 78.431
lradius 63.76
lwrist -6.8775
lhand -3.04438 -0.526975
lfingers 7.12502
lthumb 22.6714 28.1613
rfemur -32.7616 -4.96745 16.0591
rtibia 43.2356
rfoot -12.2123 -11.3646
rtoes 2.40492
lfemur -1.98523 -10.897 -12.018
ltibia 31.2487
lfoot -17.9201 -18.8174
ltoes -18.5032
532
root 22.3441 17.4121 1.19078 -184.961 69.0533 -191.493
lowerback 22.5163 -1.09283 1.6065
upperback 6.11014 -0.373254 1.47921
thorax -5.87701 0.0494365 0.756278
lowerneck -1.07491 -5.95024 3.86255
upperneck -1.03243 -7.99469 -3.07983
head -0.431118 -4.00645 -1.57305
rclavicle 2.38542e-014 -2.54444e-014
rhumerus -46.439 1.48278 -76.9433
rradius 48.7003
rwrist -8.78445
rhand -26.8004 -14.9016
rfingers 7.12502
rthumb -0.227341 -44.8812
lclavicle 2.38542e-014 -2.54444e-014
lhumerus -48.0238 -0.577801 78.7426
lradius 63.2465
lwrist -7.45675
lhand -1.87015 -0.211648
lfingers 7.12502
lthumb 23.7979 28.3345
rfemur -32.8474 -4.71151 16.1755
rtibia 43.0827
rfoot -12.3084 -11.5482
rtoes 2.60633
lfemur -1.72608 -11.1817 -11.9851
ltibia 30.404
lfoot -17.4243 -18.5271
ltoes -19.1964
533
root 22.4152 17.4363 1.20538 -184.757 69.2194 -191.66
lowerback 22.449 -1.09331 1.58674
upperback 6.08739 -0.375983 1.57713
thorax -5.86636 0.0464715 0.873763
lowerneck -1.10812 -5.87069 3.90621
upperneck -1.23554 -7.89409 -3.20638
head -0.492607 -3.95649 -1.61889
rclavicle -2.38542e-015 1.98785e-014
rhumerus -46.2224 1.52816 -76.8324
rradius 49.4914
rwrist -10.178
rhand -27.2268 -14.9091
rfingers 7.12502
rthumb -0.639172 -44.8879
lclavicle -2.38542e-015 1.98785e-014
lhumerus -48.1428 -0.743073 79.06
lradius 62.8491
lwrist -7.74764
lhand -0.653256 0.259163
lfingers 7.12502
lthumb 24.9645 28.6483
rfemur -32.9465 -4.40738 16.2767
rtibia 42.8914
rfoot -12.3899 -11.7128
rtoes 2.8221
lfemur -1.44748 -11.4112 -11.9603
ltibia 29.5003
lfoot -16.9026 -18.2334
ltoes -19.9173
534
root 22.4848 17.4603 1.21977 -184.56 69.424 -191.857
lowerback 22.3501 -1.07674 1.54183
upperback 6.06468 -0.364909 1.66674
thorax -5.83939 0.0499019 0.992586
lowerneck -1.13979 -5.78868 3.94778
upperneck -1.43883 -7.79028 -3.32073
head -0.553609 -3.90478 -1.66077
rclavicle 1.43125e-014 3.81667e-014
rhumerus -46.0312 1.61266 -76.7641
rradius 50.2493
rwrist -11.4186
rhand -27.4526 -15.0409
rfingers 7.12502
rthumb -0.857258 -45.0189
lclavicle 1.43125e-014 3.81667e-014
lhumerus -48.2265 -0.963263 79.3809
lradius 62.5568
lwrist -7.78352
lhand 0.579816 0.869548
lfingers 7.12502
lthumb 26.1456 29.0893
rfemur -33.0565 -4.0609 16.3629
rtibia 42.6607
rfoot -12.4601 -11.8633
rtoes 3.04014
lfemur -1.16018 -11.5937 -11.9414
ltibia 28.552
lfoot -16.3608 -17.9376
ltoes -20.6467
535
root 22.5527 17.4839 1.23401 -184.357 69.66 -192.069
lowerback 22.2235 -1.04695 1.486
upperback 6.04013 -0.34173 1.74679
thorax -5.8002 0.0587855 1.10378
lowerneck -1.17216 -5.70595 3.97553
upperneck -1.63292 -7.68521 -3.41072
head -0.609859 -3.85232 -1.69302
rclavicle -1.59028e-014 -1.19271e-014
rhumerus -45.8631 1.7286 -76.7356
rradius 50.952
rwrist -12.4512
rhand -27.4849 -15.2649
rfingers 7.12502
rthumb -0.888444 -45.2428
lclavicle -1.59028e-014 -1.19271e-014
lhumerus -48.2719 -1.23291 79.6995
lradius 62.3547
lwrist -7.63431
lhand 1.79527 1.59548
lfingers 7.12502
lthumb 27.3088 29.6377
rfemur -33.1759 -3.67703 16.44
rtibia 42.392
rfoot -12.5188 -12.0087
rtoes 3.23408
lfemur -0.871898 -11.7374 -11.9223
ltibia 27.571
lfoot -15.8016 -17.64
ltoes -21.3883
